<?xml version="1.0" standalone="no"?>
<!DOCTYPE svg PUBLIC "-//W3C//DTD SVG 20010904//EN"
 "http://www.w3.org/TR/2001/REC-SVG-20010904/DTD/svg10.dtd">
<svg version="1.0" xmlns="http://www.w3.org/2000/svg"
 width="452.000000pt" height="359.000000pt" viewBox="0 0 452.000000 359.000000"
 preserveAspectRatio="xMidYMid meet">

<g transform="translate(0.000000,359.000000) scale(0.100000,-0.100000)"
fill="#000000" stroke="none">
<path d="M2094 2551 c-100 -34 -204 -110 -204 -149 0 -23 25 -52 45 -52 7 0
31 15 54 34 73 61 126 81 228 84 113 5 165 -11 248 -73 65 -49 76 -53 99 -29
36 36 4 85 -92 141 -108 64 -267 82 -378 44z"/>
<path d="M1672 2204 l-63 -86 10 -56 c6 -31 14 -91 20 -132 5 -41 14 -111 20
-155 6 -44 18 -134 26 -200 8 -66 20 -151 25 -190 6 -38 11 -81 12 -95 l3 -25
513 -3 512 -2 0 32 c0 17 4 59 9 92 6 34 17 120 26 191 9 72 20 159 25 195 5
36 14 103 20 150 6 47 15 111 21 142 l10 56 -63 86 -63 86 -500 0 -500 0 -63
-86z m318 -73 c5 -11 10 -71 10 -135 0 -116 7 -139 35 -116 12 10 15 40 15
137 0 101 3 125 15 129 36 14 45 -13 45 -142 0 -124 7 -147 35 -124 12 10 15
40 15 137 0 105 2 125 16 130 11 4 22 -1 31 -13 12 -15 14 -49 11 -164 -3
-130 -6 -149 -27 -186 -13 -23 -34 -48 -47 -55 -24 -12 -24 -15 -24 -159 0
-100 -4 -150 -12 -158 -17 -17 -55 -15 -62 4 -3 9 -6 77 -6 152 l0 137 -35 28
c-56 45 -65 79 -65 252 0 150 2 161 32 164 4 1 12 -8 18 -18z m443 8 c72 -38
97 -90 97 -209 0 -103 -14 -144 -65 -188 l-35 -31 0 -140 c0 -77 -3 -146 -6
-155 -7 -19 -45 -21 -62 -4 -8 8 -12 58 -12 160 0 147 0 148 -26 164 -48 32
-68 88 -69 194 0 86 3 99 28 142 40 69 97 94 150 67z"/>
</g>
</svg>
